<svg width="512" height="512" viewBox="0 0 64 64" xmlns="http://www.w3.org/2000/svg" xmlns:xlink="http://www.w3.org/1999/xlink" id="Glyph" overflow="hidden"><path d="M36.787 44.422C36.624 45.42 36.365 46.384 36.016 47.306L39.147 50.143C38.708 51.067 38.208 51.955 37.631 52.789L33.611 51.493C32.977 52.268 32.267 52.977 31.492 53.611L32.788 57.631C31.954 58.208 31.066 58.707 30.142 59.147L27.305 56.016C26.383 56.365 25.42 56.624 24.421 56.787L23.528 60.923C23.023 60.963 22.516 61 22 61 21.484 61 20.977 60.963 20.471 60.923L19.578 56.787C18.58 56.624 17.616 56.365 16.694 56.016L13.857 59.147C12.933 58.708 12.045 58.208 11.211 57.631L12.507 53.611C11.732 52.977 11.023 52.267 10.389 51.493L6.369 52.789C5.792 51.955 5.293 51.067 4.853 50.143L7.984 47.306C7.635 46.384 7.376 45.421 7.213 44.422L3.077 43.529C3.037 43.023 3 42.516 3 42 3 41.484 3.037 40.977 3.077 40.471L7.213 39.578C7.376 38.58 7.635 37.616 7.984 36.694L4.853 33.857C5.292 32.933 5.792 32.045 6.369 31.211L10.389 32.507C11.023 31.732 11.733 31.023 12.508 30.389L11.212 26.369C12.046 25.792 12.934 25.293 13.858 24.853L16.695 27.984C17.617 27.635 18.58 27.376 19.579 27.213L20.472 23.077C20.977 23.037 21.484 23 22 23 22.516 23 23.023 23.037 23.529 23.077L24.422 27.213C25.42 27.376 26.384 27.635 27.306 27.984L30.143 24.853C31.067 25.292 31.955 25.792 32.789 26.369L31.493 30.389C32.268 31.023 32.977 31.733 33.611 32.508L37.631 31.212C38.208 32.046 38.707 32.934 39.147 33.858L36.016 36.695C36.365 37.617 36.624 38.58 36.787 39.579L40.923 40.472C40.963 40.977 41 41.484 41 42 41 42.516 40.963 43.023 40.923 43.529ZM22 32C16.477 32 12 36.477 12 42 12 47.523 16.477 52 22 52 27.523 52 32 47.523 32 42 32 36.477 27.523 32 22 32Z" fill="#FFFFFF"/><path d="M50.659 16.305C50.503 16.822 50.299 17.318 50.048 17.785L51.627 20.811C51.094 21.485 50.486 22.093 49.812 22.626L46.786 21.047C46.319 21.299 45.823 21.503 45.306 21.658L44.282 24.918C43.86 24.968 43.434 25 43 25 42.566 25 42.14 24.968 41.719 24.919L40.695 21.659C40.178 21.504 39.682 21.299 39.215 21.048L36.189 22.627C35.515 22.094 34.907 21.486 34.374 20.812L35.953 17.786C35.701 17.319 35.497 16.823 35.342 16.306L32.082 15.282C32.032 14.86 32 14.434 32 14 32 13.566 32.032 13.14 32.081 12.719L35.341 11.695C35.496 11.178 35.701 10.682 35.952 10.215L34.373 7.189C34.906 6.515 35.514 5.907 36.188 5.374L39.214 6.953C39.681 6.701 40.177 6.497 40.694 6.342L41.718 3.082C42.14 3.032 42.566 3 43 3 43.434 3 43.86 3.032 44.281 3.081L45.305 6.341C45.822 6.496 46.318 6.701 46.785 6.952L49.811 5.373C50.485 5.906 51.093 6.514 51.626 7.188L50.047 10.214C50.299 10.681 50.503 11.177 50.658 11.694L53.918 12.718C53.968 13.14 54 13.566 54 14 54 14.434 53.968 14.86 53.919 15.281ZM43 10C40.791 10 39 11.791 39 14 39 16.209 40.791 18 43 18 45.209 18 47 16.209 47 14 47 11.791 45.209 10 43 10Z" fill="#FFFFFF"/><path d="M58.739 38.871C58.585 39.426 58.368 39.952 58.09 40.443L59.085 42.537C58.633 43.114 58.114 43.633 57.537 44.085L55.443 43.09C54.953 43.368 54.426 43.585 53.871 43.739L53.093 45.927C52.734 45.971 52.371 46 52 46 51.629 46 51.266 45.971 50.907 45.927L50.129 43.739C49.574 43.585 49.048 43.368 48.557 43.09L46.463 44.085C45.886 43.633 45.367 43.114 44.915 42.537L45.91 40.443C45.632 39.953 45.415 39.426 45.261 38.872L43.073 38.094C43.029 37.734 43 37.371 43 37 43 36.629 43.029 36.266 43.073 35.907L45.261 35.129C45.415 34.574 45.632 34.048 45.91 33.558L44.915 31.464C45.367 30.887 45.886 30.368 46.463 29.916L48.557 30.911C49.047 30.633 49.574 30.416 50.129 30.262L50.907 28.074C51.266 28.029 51.629 28 52 28 52.371 28 52.734 28.029 53.093 28.073L53.871 30.261C54.426 30.415 54.952 30.632 55.443 30.91L57.537 29.915C58.114 30.367 58.633 30.886 59.085 31.463L58.09 33.557C58.368 34.047 58.585 34.574 58.739 35.129L60.927 35.907C60.971 36.266 61 36.629 61 37 61 37.371 60.971 37.734 60.927 38.093ZM52 34C50.343 34 49 35.343 49 37 49 38.657 50.343 40 52 40 53.657 40 55 38.657 55 37 55 35.343 53.657 34 52 34Z" fill="#FFFFFF"/><path d="M61.196 5.02 55.215 3.824 54.019 9.804 55.98 10.197 56.519 7.505C57.488 9.521 58 11.743 58 14 58 17.448 56.862 20.69 54.71 23.375L56.271 24.626C58.676 21.625 60 17.852 60 14 60 11.381 59.395 8.799 58.244 6.469L60.804 6.981Z" fill="#FFFFFF"/><path d="M23.707 13.293 22.293 14.707 23.652 16.066C23.102 16.031 22.551 16 22 16 14.264 16 6.982 19.411 2.022 25.359L3.558 26.64C8.137 21.149 14.858 18 22 18 22.509 18 23.017 18.029 23.525 18.061L22.293 19.293 23.707 20.707 27.414 17Z" fill="#FFFFFF"/></svg>