<svg id="Capa_1" enable-background="new 0 0 512 512" height="512" viewBox="0 0 512 512" width="512" xmlns="http://www.w3.org/2000/svg"><g><path d="m461.867 408.253c32.544-43.809 50.133-96.679 50.133-152.253 0-68.38-26.628-132.667-74.98-181.02-48.353-48.351-112.64-74.98-181.02-74.98v30c60.367 0 117.121 23.508 159.806 66.194 42.686 42.686 66.194 99.439 66.194 159.806 0 48.763-15.347 95.163-43.742 133.7l-3.439-39.309-29.886 2.614 7.844 89.657 89.658-7.844-2.614-29.886z"/><path d="m30 256c0-48.763 15.347-95.163 43.742-133.7l3.439 39.309 29.886-2.614-7.844-89.657-89.658 7.843 2.614 29.886 37.953-3.32c-32.543 43.809-50.132 96.679-50.132 152.253 0 68.38 26.628 132.667 74.98 181.02 48.353 48.351 112.64 74.98 181.02 74.98v-30c-60.367 0-117.121-23.508-159.806-66.194-42.686-42.686-66.194-99.439-66.194-159.806z"/><path d="m256 195c-33.636 0-61 27.364-61 61s27.364 61 61 61 61-27.364 61-61-27.364-61-61-61zm0 92c-17.093 0-31-13.907-31-31s13.907-31 31-31 31 13.907 31 31-13.907 31-31 31z"/><path d="m394.974 195.073-29.434 9.564c-6.573-13.961-15.736-26.47-26.869-36.904l18.22-25.078-24.271-17.634-18.198 25.048c-13.174-7.295-27.842-12.205-43.422-14.14v-30.929h-30v30.929c-15.58 1.935-30.248 6.846-43.422 14.14l-18.198-25.048-24.271 17.634 18.22 25.078c-11.133 10.434-20.297 22.942-26.869 36.904l-29.434-9.564-9.271 28.531 29.416 9.558c-1.419 7.399-2.171 15.032-2.171 22.838s.752 15.439 2.171 22.838l-29.416 9.558 9.271 28.531 29.434-9.564c6.573 13.961 15.736 26.47 26.869 36.904l-18.22 25.078 24.271 17.634 18.198-25.048c13.174 7.295 27.842 12.205 43.422 14.14v30.929h30v-30.929c15.58-1.935 30.248-6.846 43.422-14.14l18.198 25.048 24.271-17.634-18.22-25.078c11.133-10.434 20.297-22.942 26.869-36.904l29.434 9.564 9.271-28.531-29.416-9.558c1.419-7.399 2.171-15.032 2.171-22.838s-.752-15.439-2.171-22.838l29.416-9.558zm-138.974 151.927c-50.178 0-91-40.822-91-91s40.822-91 91-91 91 40.822 91 91-40.822 91-91 91z"/></g></svg>