<svg width="512" height="512" viewBox="0 0 512 512" xmlns="http://www.w3.org/2000/svg" xmlns:xlink="http://www.w3.org/1999/xlink" id="Layer_1" overflow="hidden"><g><path d="M407.579 87.677C376.506 34.053 321.314 1.292 259.939 0.04 257.319-0.014 254.682-0.014 252.061 0.04 190.687 1.292 135.495 34.053 104.421 87.677 72.659 142.489 71.79 208.329 102.096 263.8L229.059 496.187C229.116 496.29 229.173 496.393 229.232 496.495 234.818 506.204 244.825 512 256.002 512 267.178 512 277.185 506.203 282.77 496.495 282.829 496.393 282.886 496.29 282.943 496.187L409.906 263.8C440.21 208.329 439.341 142.489 407.579 87.677ZM256 232C216.299 232 184 199.701 184 160 184 120.299 216.299 88 256 88 295.701 88 328 120.299 328 160 328 199.701 295.702 232 256 232Z" fill="#FFFFFF"/></g></svg>