<svg width="932.179" height="932.179" viewBox="0 0 932.179 932.179" xmlns="http://www.w3.org/2000/svg" xmlns:xlink="http://www.w3.org/1999/xlink" id="Capa_1" overflow="hidden"><g><path d="M61.2 341.538C66.1 358.338 72.9 374.538 81.5 389.738L57 420.638C49 430.738 49.9 445.138 58.9 454.238L101.1 496.438C110.2 505.538 124.6 506.337 134.7 498.337L165.4 474.037C181.2 483.138 198 490.237 215.5 495.237L220.1 534.737C221.6 547.537 232.4 557.137 245.2 557.137L304.9 557.137C317.7 557.137 328.5 547.536 330 534.737L334.4 496.637C353.2 491.737 371.2 484.437 388.1 474.937L417.8 498.437C427.9 506.437 442.3 505.537 451.4 496.537L493.6 454.337C502.7 445.237 503.5 430.837 495.5 420.737L472.4 391.437C482 374.836 489.5 357.137 494.5 338.637L530.1 334.537C542.901 333.037 552.5 322.237 552.5 309.437L552.5 249.737C552.5 236.937 542.9 226.137 530.1 224.637L495 220.537C490.199 202.237 483 184.737 473.801 168.337L495.401 141.037C503.401 130.937 502.501 116.537 493.501 107.437L451.401 65.337C442.301 56.237 427.901 55.437 417.801 63.437L391.301 84.437C374.101 74.337 355.7 66.637 336.401 61.437L332.401 27.137C330.901 14.337 320.101 4.737 307.301 4.737L247.601 4.737C234.801 4.737 224.001 14.337 222.501 27.137L218.501 61.437C198.701 66.737 179.801 74.737 162.201 85.237L134.701 63.437C124.601 55.437 110.201 56.337 101.101 65.337L58.901 107.537C49.801 116.637 49.001 131.037 57.001 141.137L80.001 170.237C70.801 186.837 63.801 204.537 59.201 222.937L22.401 227.137C9.601 228.637 0.001 239.437 0.001 252.237L0.001 311.937C0.001 324.737 9.601 335.537 22.401 337.037L61.2 341.538ZM277.5 180.038C331.9 180.038 376.2 224.338 376.2 278.738 376.2 333.138 331.9 377.438 277.5 377.438 223.101 377.438 178.8 333.138 178.8 278.738 178.8 224.338 223.1 180.038 277.5 180.038Z" fill="#FFFFFF"/><path d="M867.699 356.238 836.199 329.638C826.5 321.438 812.199 321.838 803 330.538L785.6 346.838C770.901 339.738 755.301 334.738 739.2 331.838L734.302 307.838C731.802 295.438 720.302 286.838 707.7 287.838L666.6 291.338C654 292.438 644.1 302.738 643.7 315.438L642.901 339.838C627.1 345.538 612.2 353.338 598.6 363.138L577.801 349.338C567.199 342.338 553.1 344.338 544.901 354.038L518.301 385.738C510.1 395.438 510.5 409.738 519.199 418.938L537.4 438.337C531.099 452.537 526.599 467.438 524 482.737L498 488.037C485.6 490.537 477 502.037 478 514.638L481.5 555.738C482.6 568.338 492.9 578.238 505.6 578.638L533.7 579.537C538.802 592.937 545.501 605.638 553.6 617.537L537.901 641.237C530.901 651.837 532.901 665.937 542.6 674.137L574.1 700.737C583.801 708.937 598.1 708.537 607.301 699.837L627.901 680.537C641.401 686.837 655.6 691.537 670.2 694.337L675.901 722.537C678.401 734.937 689.901 743.537 702.501 742.537L743.601 739.037C756.201 737.937 766.101 727.638 766.501 714.937L767.401 687.336C782.401 682.036 796.6 674.836 809.7 665.937L832.401 680.937C843.001 687.937 857.1 685.937 865.301 676.237L891.901 644.737C900.1 635.037 899.7 620.737 891.001 611.537L872.7 592.138C879.401 577.938 884.302 562.938 887.1 547.537L912.1 542.437C924.5 539.937 933.1 528.437 932.1 515.836L928.6 474.736C927.5 462.136 917.2 452.236 904.5 451.836L879.4 451.036C874.199 436.436 867.199 422.637 858.5 409.836L872.199 389.236C879.4 378.638 877.4 364.438 867.699 356.238ZM712.801 593.837C668.401 597.638 629.199 564.537 625.5 520.138 621.699 475.738 654.801 436.537 699.199 432.837 743.599 429.037 782.801 462.138 786.5 506.537 790.301 550.938 757.199 590.138 712.801 593.837Z" fill="#FFFFFF"/><path d="M205 704.438C192.4 705.738 182.7 716.337 182.6 729.038L182.3 754.338C182.1 767.038 191.5 777.838 204.1 779.439L222.7 781.838C225.8 793.139 230.2 803.939 235.9 814.139L223.9 828.939C215.9 838.838 216.5 853.039 225.4 862.139L243.1 880.239C252 889.339 266.2 890.339 276.3 882.539L291.199 871.039C301.699 877.239 312.8 882.14 324.399 885.539L326.399 904.739C327.699 917.339 338.299 927.039 350.999 927.139L376.3 927.439C388.999 927.639 399.8 918.239 401.4 905.639L403.7 887.439C416.301 884.338 428.301 879.639 439.7 873.439L453.7 884.739C463.6 892.739 477.801 892.139 486.901 883.239L505.001 865.539C514.101 856.64 515.101 842.439 507.302 832.339L496.6 818.438C503.2 807.438 508.301 795.738 511.801 783.438L528.401 781.738C541.001 780.438 550.7 769.838 550.801 757.138L551.1 731.837C551.301 719.138 541.901 708.337 529.301 706.737L513.1 704.637C510 692.437 505.401 680.637 499.401 669.637L509.501 657.237C517.501 647.337 516.901 633.137 508.001 624.037L490.302 605.937C481.402 596.836 467.2 595.836 457.101 603.637L445 612.937C433.601 606.037 421.4 600.737 408.601 597.137L407 581.437C405.7 568.836 395.101 559.137 382.4 559.037L357.1 558.737C344.4 558.537 333.6 567.937 331.999 580.537L329.999 596.138C316.8 599.537 304.1 604.738 292.3 611.537L279.8 601.337C269.9 593.337 255.699 593.938 246.599 602.837L228.399 620.638C219.299 629.537 218.299 643.738 226.099 653.837L236.799 667.638C230.599 678.638 225.699 690.337 222.499 702.638L205 704.438ZM368.3 675.837C404.6 676.237 433.699 706.138 433.3 742.438 432.9 778.738 402.999 807.837 366.699 807.438 330.399 807.038 301.3 777.138 301.699 740.837 302.1 704.538 332 675.438 368.3 675.837Z" fill="#FFFFFF"/></g><g></g><g></g><g></g><g></g><g></g><g></g><g></g><g></g><g></g><g></g><g></g><g></g><g></g><g></g><g></g></svg>