<svg width="827" height="867" xmlns="http://www.w3.org/2000/svg" xmlns:xlink="http://www.w3.org/1999/xlink" overflow="hidden"><defs><clipPath id="clip0"><rect x="-1" y="-112" width="827" height="867"/></clipPath><clipPath id="clip1"><path d="M302.688 156.554 557.227-110.946 824.727 143.593 570.188 411.093Z" fill-rule="evenodd" clip-rule="evenodd"/></clipPath><clipPath id="clip2"><path d="M302.688 156.554 557.227-110.946 824.727 143.593 570.188 411.093Z" fill-rule="evenodd" clip-rule="evenodd"/></clipPath><clipPath id="clip3"><path d="M302.688 156.554 557.227-110.946 824.727 143.593 570.188 411.093Z" fill-rule="evenodd" clip-rule="evenodd"/></clipPath><clipPath id="clip4"><rect x="0" y="191" width="564" height="564"/></clipPath><clipPath id="clip5"><rect x="0" y="191" width="564" height="564"/></clipPath><clipPath id="clip6"><rect x="0" y="191" width="564" height="564"/></clipPath></defs><g clip-path="url(#clip0)" transform="translate(1 112)"><g clip-path="url(#clip1)"><g clip-path="url(#clip2)"><g clip-path="url(#clip3)"><path d="M616.342 119.207 644.346 99.4545C658.844 111.62 680.458 109.728 692.623 95.23 704.789 80.732 702.897 59.118 688.399 46.9526 673.901 34.7873 652.287 36.6791 640.121 51.1771 632.235 60.5761 629.975 73.4736 634.197 84.9944L605.218 105.435C595.413 96.6257 582.769 91.6325 569.591 91.3637L553.928 11.7338C575.718 2.49564 585.892-22.6575 576.654-44.446 567.416-66.2344 542.263-76.4101 520.475-67.172 498.686-57.934 488.51-32.7807 497.749-10.9923 504.377 4.64171 519.611 14.8869 536.59 15.1289L552.068 93.8149C527.774 101.298 511.762 124.44 513.321 149.811L437.308 161.293C430.383 143.637 410.456 134.939 392.801 141.863 375.145 148.788 366.447 168.715 373.372 186.37 380.296 204.026 400.223 212.724 417.878 205.8 429.332 201.307 437.507 191.029 439.309 178.858L517.182 167.095C526.104 189.378 548.429 203.317 572.367 201.55L584.856 264.868C560.809 272.349 547.38 297.908 554.861 321.955 562.343 346.002 587.902 359.432 611.949 351.95 635.995 344.468 649.425 318.909 641.943 294.863 636.458 277.231 620.882 264.649 602.491 262.993L589.564 197.47C603.143 191.846 613.905 181.022 619.453 167.412L700.551 180.958C702.464 202.235 721.264 217.932 742.54 216.018 763.818 214.105 779.515 195.305 777.601 174.029 775.688 152.751 756.888 137.055 735.612 138.968 720.982 140.283 708.36 149.772 703.031 163.46L623.426 150.165C624.139 139.374 621.677 128.612 616.342 119.207ZM654.334 61.7713C660.651 55.1328 671.154 54.8721 677.792 61.1889 684.431 67.5057 684.691 78.0083 678.375 84.6467 672.058 91.2852 661.555 91.5459 654.917 85.2291 648.286 78.9084 648.025 68.412 654.334 61.7713ZM519.019-44.8607C528.564-54.8901 544.433-55.2841 554.462-45.7394 564.491-36.1947 564.885-20.326 555.341-10.2966 545.796-0.267212 529.929 0.12674 519.899-9.41728 509.884-18.9698 509.49-34.8248 519.019-44.8607ZM417.457 185.276C411.135 191.904 400.641 192.165 393.999 185.859 387.36 179.542 387.1 169.039 393.417 162.401 399.733 155.762 410.236 155.501 416.874 161.818 423.513 168.135 423.774 178.637 417.457 185.276ZM618.554 327.425C607.965 338.551 590.363 338.988 579.237 328.4 568.111 317.812 567.674 300.21 578.262 289.083 588.85 277.958 606.452 277.521 617.578 288.108 628.688 298.703 629.124 316.292 618.554 327.425ZM723.85 163.014C731.881 154.593 745.212 154.262 753.651 162.274 762.086 170.3 762.417 183.642 754.391 192.076 746.366 200.51 733.024 200.841 724.589 192.816 716.156 184.791 715.825 171.448 723.85 163.014ZM595.568 172.393C581.269 187.386 557.532 187.975 542.507 173.71L542.507 173.71C527.49 159.421 526.901 135.665 541.189 120.649 555.478 105.633 579.234 105.043 594.25 119.331 609.267 133.62 609.856 157.376 595.568 172.393Z" fill="#009682"/></g></g></g><g clip-path="url(#clip4)"><g clip-path="url(#clip5)"><g clip-path="url(#clip6)"><path d="M167.438 235.062 185.062 235.062 185.062 252.688 167.438 252.688Z" fill="#009682"/><path d="M202.688 235.062 237.938 235.062 237.938 252.688 202.688 252.688Z" fill="#009682"/><path d="M502.312 217.438 273.188 217.438 273.188 199.812 132.188 199.812 132.188 217.438 61.6875 217.438C32.5269 217.438 8.8125 241.152 8.8125 270.312L8.8125 658.062C8.8125 687.223 32.5269 710.938 61.6875 710.938L114.562 710.938 114.562 622.812 172.055 622.812C177.572 646.201 187.927 668.373 202.688 687.549L202.688 746.188 361.312 746.188 361.312 687.549C376.073 668.373 386.428 646.201 391.945 622.812L449.438 622.812 449.438 710.938 502.312 710.938C531.473 710.938 555.188 687.223 555.188 658.062L555.188 270.312C555.188 241.152 531.473 217.438 502.312 217.438ZM149.812 217.438 255.562 217.438 255.562 270.312 149.812 270.312ZM61.6875 235.062 132.188 235.062 132.188 287.938 197.074 287.938 234.36 367.832C222.868 375.789 214.717 388.18 212.293 402.5L185.062 402.5 185.062 384.875 132.188 384.875 132.188 437.75 185.062 437.75 185.062 420.125 212.302 420.125C214.919 435.573 224.287 449.092 237.938 456.996L237.938 578.75C237.938 583.615 233.99 587.562 229.125 587.562 224.26 587.562 220.312 583.615 220.312 578.75L220.312 525.875C220.312 506.435 204.503 490.625 185.062 490.625 175.342 490.625 167.438 498.53 167.438 508.25L167.438 569.938 114.562 569.938 114.562 552.312 149.812 552.312 149.812 534.688 114.562 534.688 114.562 305.562 61.6875 305.562C42.2471 305.562 26.4375 289.753 26.4375 270.312 26.4375 250.872 42.2471 235.062 61.6875 235.062ZM361.312 323.188 449.438 323.188 449.438 376.062 361.312 376.062ZM449.438 393.688 449.438 569.938 396.562 569.938 396.562 552.312 431.812 552.312 431.812 534.688 396.562 534.688 396.562 525.875C396.562 511.299 384.701 499.438 370.125 499.438 366.644 499.438 363.339 500.151 360.29 501.376 357.25 490.14 347.063 481.812 334.875 481.812 331.394 481.812 328.089 482.526 325.04 483.751 322 472.515 311.813 464.188 299.625 464.188 296.523 464.188 293.58 464.822 290.812 465.809L290.812 456.996C307.01 447.62 317.25 430.321 317.25 411.312 317.25 394.489 309.328 379.508 297.043 369.823L322.485 323.188 343.688 323.188 343.688 393.688ZM299.625 411.312C299.625 420.213 296.259 428.559 290.522 434.912 289.094 421.685 277.982 411.312 264.375 411.312 250.768 411.312 239.656 421.685 238.228 434.912 232.491 428.559 229.125 420.213 229.125 411.312 229.125 391.872 244.935 376.062 264.375 376.062 283.815 376.062 299.625 391.872 299.625 411.312ZM167.438 402.5 167.438 420.125 149.812 420.125 149.812 402.5ZM96.9375 693.312 61.6875 693.312C42.2471 693.312 26.4375 677.503 26.4375 658.062L26.4375 309.696C35.8052 318.076 48.1603 323.188 61.6875 323.188L96.9375 323.188ZM114.562 605.188 114.562 587.562 167.587 587.562C167.711 593.476 168.187 599.345 168.927 605.188ZM378.938 584.011C378.938 618.397 367.102 652.132 345.617 678.992L343.688 681.407 343.688 728.562 220.312 728.562 220.312 681.407 218.383 678.992C196.898 652.132 185.062 618.397 185.062 584.011L185.062 508.25C194.783 508.25 202.688 516.155 202.688 525.875L202.688 578.75C202.688 593.326 214.549 605.188 229.125 605.188 243.701 605.188 255.562 593.326 255.562 578.75L255.562 437.75C255.562 432.885 259.51 428.938 264.375 428.938 269.24 428.938 273.188 432.885 273.188 437.75L273.188 587.562 290.812 587.562 290.812 490.625C290.812 485.761 294.761 481.812 299.625 481.812 304.489 481.812 308.438 485.761 308.438 490.625L308.438 587.562 326.062 587.562 326.062 508.25C326.062 503.386 330.011 499.438 334.875 499.438 339.739 499.438 343.688 503.386 343.688 508.25L343.688 587.562 361.312 587.562 361.312 525.875C361.312 521.01 365.261 517.062 370.125 517.062 374.989 517.062 378.938 521.01 378.938 525.875ZM395.082 605.188C395.822 599.345 396.289 593.476 396.422 587.562L449.438 587.562 449.438 605.188ZM537.562 658.062C537.562 677.503 521.753 693.312 502.312 693.312L467.062 693.312 467.062 323.188 502.312 323.188C515.84 323.188 528.204 318.076 537.562 309.696ZM502.312 305.562 458.25 305.562 449.438 305.562 312.015 305.562 281.577 361.372C276.175 359.504 270.403 358.438 264.375 358.438 259.51 358.438 254.813 359.151 250.337 360.385L216.523 287.938 273.188 287.938 273.188 235.062 502.312 235.062C521.753 235.062 537.562 250.872 537.562 270.312 537.562 289.753 521.753 305.562 502.312 305.562Z" fill="#009682"/><path d="M343.688 411.312 431.812 411.312 431.812 428.938 343.688 428.938Z" fill="#009682"/><path d="M378.938 446.562 431.812 446.562 431.812 464.188 378.938 464.188Z" fill="#009682"/><path d="M378.938 340.812 431.812 340.812 431.812 358.438 378.938 358.438Z" fill="#009682"/></g></g></g></g></svg>