<?xml version="1.0" encoding="iso-8859-1"?>
<!-- Generator: Adobe Illustrator 19.0.0, SVG Export Plug-In . SVG Version: 6.00 Build 0)  -->
<svg version="1.1" id="Layer_1" xmlns="http://www.w3.org/2000/svg" xmlns:xlink="http://www.w3.org/1999/xlink" x="0px" y="0px"
	 viewBox="0 0 512 512" style="enable-background:new 0 0 512 512;" xml:space="preserve">
<g>
	<g>
		<path d="M509.782,247.724L390.059,40.356c-2.957-5.121-8.421-8.276-14.334-8.276H136.275c-5.914,0-11.378,3.155-14.334,8.276
			L2.218,247.724c-2.957,5.121-2.957,11.431,0,16.552l119.724,207.368c2.957,5.121,8.42,8.276,14.334,8.276h239.449
			c5.913,0,11.378-3.155,14.334-8.276l119.723-207.368C512.739,259.155,512.739,252.845,509.782,247.724z M256,370.76
			c-63.279,0-114.76-51.481-114.76-114.76S192.721,141.24,256,141.24S370.76,192.721,370.76,256S319.279,370.76,256,370.76z"/>
	</g>
</g>
<g>
</g>
<g>
</g>
<g>
</g>
<g>
</g>
<g>
</g>
<g>
</g>
<g>
</g>
<g>
</g>
<g>
</g>
<g>
</g>
<g>
</g>
<g>
</g>
<g>
</g>
<g>
</g>
<g>
</g>
</svg>
