<svg viewBox="0 0 512 512" xmlns="http://www.w3.org/2000/svg" xmlns:xlink="http://www.w3.org/1999/xlink" id="Layer_1" overflow="hidden"><g><g><path d="M509.782 247.724 390.059 40.356C387.102 35.235 381.638 32.08 375.725 32.08L136.275 32.08C130.361 32.08 124.897 35.235 121.941 40.356L2.218 247.724C-0.739 252.845-0.739 259.155 2.218 264.276L121.942 471.644C124.899 476.765 130.362 479.92 136.276 479.92L375.725 479.92C381.638 479.92 387.103 476.765 390.059 471.644L509.782 264.276C512.739 259.155 512.739 252.845 509.782 247.724ZM256 370.76C192.721 370.76 141.24 319.279 141.24 256 141.24 192.721 192.721 141.24 256 141.24 319.279 141.24 370.76 192.721 370.76 256 370.76 319.279 319.279 370.76 256 370.76Z" fill="#FFFFFF"/></g></g><g></g><g></g><g></g><g></g><g></g><g></g><g></g><g></g><g></g><g></g><g></g><g></g><g></g><g></g><g></g></svg>